<?xml version="1.0" encoding="UTF-8"?>
<!DOCTYPE svg PUBLIC "-//W3C//DTD SVG 1.1//EN" "http://www.w3.org/Graphics/SVG/1.1/DTD/svg11.dtd">
<!-- Creator: CorelDRAW -->
<svg xmlns="http://www.w3.org/2000/svg" xml:space="preserve" width="6.82666in" height="6.82666in" style="shape-rendering:geometricPrecision; text-rendering:geometricPrecision; image-rendering:optimizeQuality; fill-rule:evenodd; clip-rule:evenodd"
viewBox="0 0 6.82666 6.82666"
 xmlns:xlink="http://www.w3.org/1999/xlink">
 <defs>
  <style type="text/css">
   <![CDATA[
    .fil2 {fill:none}
    .fil8 {fill:#0097A7}
    .fil7 {fill:#00BCD4}
    .fil6 {fill:#391F0B}
    .fil4 {fill:#455A64}
    .fil3 {fill:#999999}
    .fil1 {fill:#FFD54F}
    .fil0 {fill:#FFE082}
    .fil5 {fill:#FF6F00;fill-rule:nonzero}
   ]]>
  </style>
   <clipPath id="id0">
    <path d="M3.41333 -3.93701e-006c1.88513,0 3.41333,1.5282 3.41333,3.41333 0,1.88513 -1.5282,3.41333 -3.41333,3.41333 -1.88513,0 -3.41333,-1.5282 -3.41333,-3.41333 0,-1.88513 1.5282,-3.41333 3.41333,-3.41333z"/>
   </clipPath>
 </defs>
 <g id="Layer_x0020_1">
  <metadata id="CorelCorpID_0Corel-Layer"/>
  <path class="fil0" d="M3.41333 -3.93701e-006c1.88513,0 3.41333,1.5282 3.41333,3.41333 0,1.88513 -1.5282,3.41333 -3.41333,3.41333 -1.88513,0 -3.41333,-1.5282 -3.41333,-3.41333 0,-1.88513 1.5282,-3.41333 3.41333,-3.41333z"/>
  <g style="clip-path:url(#id0)">
   <g id="_457170680">
    <g>
     <polygon id="_4546028561" class="fil1" points="4.73733,2.31404 8.5236,6.10031 8.54343,6.12309 8.5629,6.1461 8.582,6.16932 8.60074,6.19276 8.61912,6.21641 8.63713,6.24027 8.65478,6.26433 8.67207,6.28859 8.68899,6.31305 8.70554,6.3377 8.72172,6.36254 8.73755,6.38755 8.753,6.41275 8.76809,6.43812 8.7828,6.46366 8.79715,6.48937 8.81114,6.51524 8.82475,6.54127 8.838,6.56745 8.85087,6.59378 8.86337,6.62026 8.87551,6.64689 8.88727,6.67365 8.89867,6.70054 8.90969,6.72756 5.12342,2.94129 5.1124,2.91427 5.101,2.88737 5.08924,2.86061 5.07711,2.83399 5.0646,2.80751 5.05173,2.78118 5.03848,2.755 5.02487,2.72896 5.01089,2.70309 4.99654,2.67739 4.98182,2.65185 4.96673,2.62648 4.95128,2.60128 4.93546,2.57626 4.91927,2.55143 4.90272,2.52678 4.8858,2.50232 4.86852,2.47806 4.85087,2.454 4.83285,2.43014 4.81448,2.40649 4.79573,2.38305 4.77663,2.35983 4.75716,2.33682 "/>
     <polygon id="_454602664" class="fil1" points="5.12342,2.94129 8.90969,6.72756 8.92197,6.75898 8.93376,6.79056 8.94506,6.8223 8.95585,6.85418 8.96614,6.8862 8.97593,6.91836 8.98523,6.95065 8.99402,6.98306 9.00231,7.01559 9.0101,7.04823 9.01738,7.08097 9.02417,7.11381 9.03044,7.14674 9.03622,7.17976 9.04148,7.21285 9.04625,7.24602 9.0505,7.27926 9.05426,7.31255 9.0575,7.3459 9.06023,7.37929 9.06246,7.41272 9.06417,7.4462 9.06538,7.4797 9.06607,7.51322 9.06626,7.54675 9.06594,7.5803 9.0651,7.61385 9.06375,7.64739 9.06188,7.68093 9.0595,7.71445 9.05661,7.74795 9.0532,7.78142 5.26694,3.99515 5.27034,3.96168 5.27324,3.92818 5.27561,3.89466 5.27748,3.86112 5.27883,3.82757 5.27967,3.79403 5.28,3.76048 5.27981,3.72694 5.27911,3.69343 5.27791,3.65993 5.27619,3.62645 5.27396,3.59302 5.27123,3.55963 5.26799,3.52628 5.26424,3.49298 5.25998,3.45975 5.25522,3.42658 5.24995,3.39348 5.24418,3.36047 5.2379,3.32754 5.23111,3.2947 5.22383,3.26196 5.21604,3.22932 5.20775,3.19679 5.19896,3.16438 5.18967,3.13209 5.17987,3.09993 5.16958,3.06791 5.15879,3.03602 5.1475,3.00429 5.1357,2.97271 "/>
     <polygon id="_454604224" class="fil1" points="5.26694,3.99515 9.0532,7.78142 9.05285,7.78454 5.26659,3.99827 "/>
     <polygon id="_454603936" class="fil1" points="5.26659,3.99827 9.05285,7.78454 9.03834,7.89174 5.25207,4.10547 "/>
     <polygon id="_454603960" class="fil1" points="5.25207,4.10547 9.03834,7.89174 9.03794,7.89426 5.25168,4.10798 "/>
     <polygon id="_454604008" class="fil1" points="5.25168,4.10798 9.03794,7.89426 9.03587,7.90682 9.03372,7.91938 9.0315,7.93192 9.02921,7.94445 9.02685,7.95697 9.02442,7.96948 9.02191,7.98196 9.01933,7.99444 9.01669,8.00691 9.01396,8.01935 9.01117,8.03179 9.00831,8.04421 9.00537,8.05661 9.00236,8.069 8.99928,8.08137 8.99612,8.09372 8.9929,8.10606 8.9896,8.11838 8.98623,8.13068 8.98279,8.14296 8.97927,8.15522 8.97569,8.16747 8.97202,8.1797 8.96829,8.19191 8.96449,8.20409 8.96061,8.21626 8.95666,8.22841 8.95264,8.24053 8.94855,8.25264 8.94438,8.26472 8.94014,8.27678 8.93583,8.28882 5.14956,4.50255 5.15387,4.49051 5.15811,4.47845 5.16228,4.46637 5.16637,4.45426 5.17039,4.44214 5.17434,4.42999 5.17822,4.41782 5.18202,4.40563 5.18576,4.39343 5.18942,4.3812 5.193,4.36895 5.19652,4.35669 5.19996,4.34441 5.20333,4.33211 5.20663,4.31979 5.20985,4.30745 5.21301,4.29509 5.21609,4.28272 5.2191,4.27034 5.22204,4.25794 5.2249,4.24552 5.2277,4.23308 5.23042,4.22063 5.23307,4.20817 5.23565,4.19569 5.23815,4.1832 5.24058,4.1707 5.24294,4.15818 5.24524,4.14565 5.24746,4.13311 5.2496,4.12055 "/>
     <polygon id="_454604128" class="fil1" points="4.82616,4.35345 8.61243,8.13972 8.5982,8.12547 8.58338,8.11163 8.56796,8.09822 4.7817,4.31195 4.79711,4.32536 4.81194,4.3392 "/>
     <polygon id="_454604896" class="fil1" points="2.29806,2.23101 6.08433,6.01728 6.06565,5.99931 6.04598,5.98203 6.03013,5.9692 6.01397,5.95704 5.9975,5.94552 5.98075,5.93467 5.96373,5.92448 5.94646,5.91493 5.92896,5.90604 5.91124,5.89781 5.89333,5.89022 5.87523,5.88328 5.85697,5.87698 5.83856,5.87134 5.82001,5.86633 5.80135,5.86197 5.7826,5.85826 5.76376,5.85517 5.74486,5.85273 5.72592,5.85093 5.70694,5.84975 5.68795,5.84921 5.66897,5.84931 5.65,5.85003 5.63108,5.85139 5.61221,5.85337 5.59341,5.85597 5.57471,5.8592 5.55611,5.86306 5.53763,5.86753 5.51929,5.87263 5.50111,5.87834 5.4831,5.88467 5.46528,5.89161 1.67901,2.10534 1.69683,2.0984 1.71484,2.09207 1.73302,2.08635 1.75136,2.08126 1.76984,2.07678 1.78844,2.07293 1.80715,2.0697 1.82594,2.06709 1.84481,2.06511 1.86374,2.06376 1.8827,2.06304 1.90169,2.06294 1.92067,2.06348 1.93965,2.06465 1.95859,2.06646 1.97749,2.0689 1.99633,2.07198 2.01509,2.0757 2.03374,2.08006 2.05229,2.08507 2.0707,2.09071 2.08896,2.09701 2.10706,2.10394 2.12498,2.11154 2.1427,2.11977 2.1602,2.12866 2.17746,2.1382 2.19448,2.1484 2.21123,2.15925 2.2277,2.17076 2.24387,2.18293 2.25971,2.19576 2.27938,2.21304 "/>
     <polygon id="_454604800" class="fil1" points="3.15334,2.97145 6.93961,6.75772 6.92915,6.74717 6.91835,6.73685 6.90724,6.72675 6.8958,6.71689 6.8758,6.70085 6.8553,6.68586 6.83434,6.67191 6.81296,6.659 6.79117,6.64712 6.76903,6.63628 6.74656,6.62647 6.72379,6.61769 6.70077,6.60993 6.67752,6.60319 6.65407,6.59747 6.63047,6.59277 6.60674,6.58908 6.58293,6.5864 6.55905,6.58472 6.53515,6.58406 6.51126,6.58439 6.48742,6.58571 6.46366,6.58804 6.44,6.59135 6.4165,6.59566 6.39317,6.60095 6.37006,6.60722 6.34719,6.61448 6.3246,6.6227 6.30233,6.63191 6.28041,6.64209 6.25887,6.65323 6.23774,6.66533 6.21707,6.67841 6.19688,6.69244 6.17721,6.70742 2.39094,2.92115 2.41061,2.90617 2.4308,2.89213 2.45148,2.87906 2.4726,2.86696 2.49414,2.85581 2.51606,2.84564 2.53833,2.83643 2.56092,2.8282 2.58379,2.82095 2.6069,2.81468 2.63023,2.80939 2.65374,2.80508 2.67739,2.80177 2.70115,2.79944 2.725,2.79811 2.74889,2.79778 2.77278,2.79845 2.79666,2.80013 2.82048,2.80281 2.8442,2.8065 2.8678,2.8112 2.89125,2.81692 2.9145,2.82365 2.93752,2.83141 2.96029,2.8402 2.98276,2.85001 3.00491,2.86085 3.02669,2.87272 3.04807,2.88564 3.06903,2.89959 3.08953,2.91458 3.10953,2.93062 3.12097,2.94048 3.13209,2.95057 3.14288,2.9609 "/>
     <polygon id="_454604824" class="fil1" points="2.24233,4.71829 6.0286,8.50456 6.01153,8.49024 2.22526,4.70396 "/>
     <polygon id="_454604920" class="fil1" points="2.25967,4.66295 6.04594,8.44922 6.02996,8.43582 2.2437,4.64955 "/>
     <polygon id="_454604944" class="fil1" points="2.39094,2.92115 6.17721,6.70742 6.17647,6.70679 2.3902,2.92052 "/>
     <polygon id="_454605136" class="fil1" points="3.94802,3.63715 7.73429,7.42342 7.71596,7.40584 7.6967,7.38893 7.68515,7.37949 7.67344,7.37041 7.66156,7.36168 7.64951,7.3533 7.63732,7.34526 7.62498,7.33759 7.6125,7.33026 7.59989,7.32328 7.58715,7.31664 7.5743,7.31036 7.56133,7.30442 7.54826,7.29883 7.53508,7.29358 7.52182,7.28869 7.50846,7.28413 7.49504,7.27992 7.48153,7.27606 7.46796,7.27253 7.45433,7.26935 7.44064,7.26651 7.42691,7.26402 7.41314,7.26186 7.39934,7.26004 7.38551,7.25857 7.37166,7.25743 7.3578,7.25663 7.34393,7.25617 7.33006,7.25605 7.31619,7.25626 7.30234,7.25681 7.28851,7.2577 7.2747,7.25892 3.48843,3.47265 3.50224,3.47143 3.51607,3.47054 3.52992,3.46999 3.54379,3.46978 3.55766,3.4699 3.57153,3.47036 3.58539,3.47116 3.59924,3.4723 3.61307,3.47377 3.62687,3.47559 3.64065,3.47774 3.65437,3.48024 3.66806,3.48308 3.68169,3.48626 3.69526,3.48978 3.70877,3.49365 3.7222,3.49786 3.73555,3.50241 3.74881,3.50731 3.76199,3.51256 3.77506,3.51815 3.78803,3.52409 3.80089,3.53037 3.81362,3.537 3.82624,3.54398 3.83871,3.55131 3.85105,3.55899 3.86324,3.56702 3.87529,3.57541 3.88717,3.58414 3.89889,3.59322 3.91043,3.60266 3.9297,3.61957 "/>
     <polygon id="_454604968" class="fil1" points="2.3902,2.92052 6.17647,6.70679 6.17179,6.7028 2.38552,2.91652 "/>
     <polygon id="_454604728" class="fil1" points="3.38257,3.49356 7.16883,7.27983 6.01415,8.65593 2.22789,4.86966 "/>
     <polygon id="_454605040" class="fil1" points="1.78206,4.75968 5.56833,8.54595 5.57169,8.54912 5.57485,8.55248 5.57779,8.55605 5.58048,8.55981 5.58294,8.56376 1.79667,4.77748 1.79422,4.77354 1.79152,4.76978 1.78858,4.76621 1.78543,4.76285 "/>
     <polygon id="_454604680" class="fil1" points="1.79667,4.77748 5.58294,8.56376 5.58427,8.56621 5.58548,8.56872 5.58656,8.57127 5.5875,8.57387 5.58831,8.57651 5.589,8.57919 5.58954,8.58192 5.58994,8.58469 5.59029,8.58778 5.59056,8.59083 5.59076,8.59384 5.59086,8.5968 5.59085,8.59972 5.59072,8.6026 5.59045,8.60543 5.59002,8.6082 5.58943,8.61093 5.58865,8.6136 5.58767,8.61622 5.58648,8.61878 5.58506,8.62128 5.5834,8.62373 5.58148,8.62611 5.57929,8.62843 5.57576,8.63168 5.57194,8.63482 5.56792,8.63787 5.56376,8.64083 5.55954,8.64373 5.55533,8.64658 5.5512,8.64938 5.54724,8.65216 5.54394,8.65456 5.54072,8.65698 5.53757,8.65944 5.53449,8.66195 5.53149,8.66451 5.52856,8.66713 5.5257,8.6698 5.52293,8.67255 5.52024,8.67537 5.51762,8.67827 5.51509,8.68126 5.51264,8.68435 5.51028,8.68754 5.508,8.69084 5.50581,8.69425 5.50371,8.69778 1.71744,4.91151 1.71954,4.90798 1.72173,4.90457 1.72401,4.90127 1.72637,4.89808 1.72882,4.89499 1.73135,4.892 1.73397,4.8891 1.73667,4.88628 1.73944,4.88353 1.74229,4.88085 1.74522,4.87824 1.74822,4.87568 1.7513,4.87317 1.75446,4.87071 1.75768,4.86828 1.76097,4.86589 1.76493,4.86311 1.76906,4.86031 1.77327,4.85746 1.77749,4.85456 1.78165,4.85159 1.78568,4.84855 1.78949,4.84541 1.79302,4.84216 1.79521,4.83984 1.79713,4.83746 1.79879,4.83501 1.80021,4.83251 1.8014,4.82994 1.80238,4.82733 1.80316,4.82466 1.80376,4.82193 1.80418,4.81915 1.80446,4.81633 1.80459,4.81345 1.80459,4.81053 1.8045,4.80757 1.8043,4.80456 1.80402,4.8015 1.80367,4.79841 1.80327,4.79565 1.80273,4.79292 1.80205,4.79024 1.80123,4.78759 1.80029,4.785 1.79921,4.78245 1.798,4.77994 "/>
     <polygon id="_454605160" class="fil1" points="1.71744,4.91151 5.50371,8.69778 5.50159,8.70159 5.49957,8.70544 5.49767,8.70933 5.49587,8.71325 5.49419,8.71722 5.49263,8.72122 5.4912,8.72526 5.48991,8.72934 5.48874,8.73346 5.48772,8.73761 5.48685,8.74181 5.48613,8.74604 5.48556,8.75031 5.48516,8.75463 5.48492,8.75898 5.48485,8.76336 5.48496,8.76783 5.48523,8.77229 5.48567,8.77672 5.48626,8.78112 5.48702,8.7855 5.48794,8.78983 5.48901,8.79413 5.49024,8.79838 5.49163,8.80259 5.49317,8.80674 5.49486,8.81084 5.4967,8.81488 5.49869,8.81885 5.50083,8.82275 5.50311,8.82659 5.50554,8.83034 5.50814,8.83404 5.51086,8.83764 5.51371,8.84113 5.51668,8.84451 5.51976,8.84778 5.52296,8.85092 5.52628,8.85394 5.52969,8.85684 1.74343,5.07057 1.74001,5.06767 1.7367,5.06465 1.7335,5.0615 1.73041,5.05824 1.72744,5.05486 1.72459,5.05137 1.72187,5.04777 1.71928,5.04407 1.71685,5.04031 1.71456,5.03648 1.71243,5.03258 1.71044,5.02861 1.70859,5.02457 1.7069,5.02047 1.70536,5.01632 1.70398,5.01211 1.70274,5.00786 1.70167,5.00356 1.70075,4.99922 1.7,4.99485 1.6994,4.99044 1.69896,4.98602 1.69869,4.98156 1.69859,4.97709 1.69865,4.9727 1.69889,4.96835 1.6993,4.96404 1.69986,4.95977 1.70058,4.95554 1.70145,4.95134 1.70248,4.94719 1.70364,4.94307 1.70493,4.93899 1.70637,4.93495 1.70792,4.93094 1.7096,4.92698 1.7114,4.92306 1.71331,4.91917 1.71532,4.91532 "/>
     <polygon id="_454605808" class="fil1" points="2.22789,4.86966 6.01415,8.65593 6.01477,8.66063 6.01511,8.66545 6.01515,8.67038 6.01489,8.67541 6.01433,8.68054 6.01344,8.68575 6.01222,8.69104 6.01067,8.69641 6.00877,8.70184 6.00652,8.70734 6.0039,8.71288 6.0009,8.71847 5.99753,8.7241 5.99376,8.72976 5.98959,8.73544 5.98502,8.74113 5.80146,8.95996 5.79819,8.96373 5.79479,8.96737 5.79127,8.97089 5.78764,8.97429 5.78389,8.97757 5.78005,8.98075 5.7761,8.98381 5.77206,8.98676 5.76793,8.98961 5.76372,8.99235 5.75943,8.99498 5.75506,8.99752 5.75063,8.99996 5.74613,9.0023 5.74158,9.00456 5.73697,9.00671 5.73231,9.00878 5.72761,9.01076 5.72288,9.01266 5.71811,9.01448 5.71331,9.01621 5.7085,9.01787 5.70366,9.01944 5.69881,9.02095 5.69396,9.02239 5.68911,9.02375 5.68426,9.02505 5.67941,9.02628 5.67459,9.02745 5.66978,9.02856 5.66499,9.02961 5.66024,9.03061 5.65526,9.03157 5.65027,9.03245 5.64527,9.03324 5.64027,9.03393 5.63526,9.03453 5.63024,9.03504 5.62522,9.03546 5.6202,9.03578 5.61518,9.03601 5.61016,9.03615 5.60513,9.0362 5.60012,9.03616 5.5951,9.03602 5.59009,9.03579 5.58509,9.03547 5.58009,9.03506 5.5751,9.03455 5.57013,9.03395 5.56516,9.03326 5.5602,9.03248 5.55526,9.0316 5.55033,9.03063 5.54543,9.02957 5.54053,9.02842 5.53566,9.02718 5.5308,9.02584 5.52597,9.02441 5.52115,9.02289 5.51637,9.02128 5.5116,9.01957 5.50687,9.01778 5.50215,9.01589 5.4929,9.01187 5.48382,9.00752 5.47493,9.00286 5.46623,8.99788 5.45773,8.99259 5.44944,8.987 5.44136,8.98112 5.43351,8.97494 1.64724,5.18867 1.65509,5.19485 1.66317,5.20073 1.67146,5.20632 1.67996,5.21161 1.68866,5.21659 1.69755,5.22125 1.70663,5.2256 1.71589,5.22961 1.7206,5.2315 1.72533,5.2333 1.7301,5.23501 1.73489,5.23662 1.7397,5.23814 1.74454,5.23957 1.74939,5.24091 1.75426,5.24215 1.75916,5.2433 1.76407,5.24436 1.76899,5.24533 1.77393,5.2462 1.77889,5.24699 1.78386,5.24768 1.78883,5.24828 1.79382,5.24878 1.79882,5.2492 1.80382,5.24952 1.80883,5.24975 1.81385,5.24989 1.81887,5.24993 1.82389,5.24988 1.82891,5.24974 1.83393,5.24951 1.83896,5.24919 1.84398,5.24877 1.84899,5.24826 1.854,5.24766 1.859,5.24697 1.864,5.24618 1.86899,5.2453 1.87397,5.24433 1.87872,5.24334 1.88351,5.24229 1.88832,5.24118 1.89315,5.24001 1.89799,5.23878 1.90284,5.23748 1.9077,5.23611 1.91255,5.23468 1.91739,5.23317 1.92223,5.23159 1.92705,5.22994 1.93184,5.2282 1.93661,5.22639 1.94135,5.22449 1.94605,5.22251 1.9507,5.22044 1.95531,5.21828 1.95987,5.21603 1.96436,5.21369 1.9688,5.21125 1.97316,5.20871 1.97745,5.20607 1.98167,5.20333 1.9858,5.20049 1.98983,5.19754 1.99378,5.19448 1.99763,5.1913 2.00137,5.18802 2.005,5.18461 2.00852,5.18109 2.01192,5.17746 2.01519,5.17369 2.19875,4.95486 2.20333,4.94917 2.2075,4.94348 2.21126,4.93783 2.21463,4.9322 2.21763,4.92661 2.22025,4.92107 2.2225,4.91557 2.2244,4.91014 2.22596,4.90477 2.22717,4.89948 2.22806,4.89426 2.22863,4.88914 2.22889,4.88411 2.22884,4.87918 2.2285,4.87436 "/>
     <polygon id="_454605856" class="fil1" points="4.05002,4.31323 7.83629,8.0995 7.83518,8.09859 4.04891,4.31232 "/>
     <polygon id="_454605568" class="fil1" points="4.04891,4.31232 7.83518,8.09859 7.83079,8.09497 4.04452,4.3087 "/>
     <polygon id="_454605640" class="fil1" points="3.48843,3.47265 7.2747,7.25892 7.26799,7.25964 7.2613,7.26043 7.25461,7.26131 7.24793,7.26226 7.24126,7.26329 7.2346,7.2644 7.22796,7.26559 7.22132,7.26686 7.2147,7.2682 7.2081,7.26963 7.20152,7.27114 7.19494,7.27272 7.18839,7.27438 7.18185,7.27612 7.17533,7.27794 7.16883,7.27983 3.38257,3.49356 3.38907,3.49167 3.39558,3.48985 3.40212,3.48811 3.40868,3.48645 3.41525,3.48487 3.42183,3.48336 3.42844,3.48193 3.43506,3.48059 3.44169,3.47932 3.44833,3.47813 3.45499,3.47702 3.46166,3.47599 3.46834,3.47504 3.47503,3.47416 3.48172,3.47337 "/>
     <polygon id="_454605544" class="fil1" points="4.7817,4.31195 8.56796,8.09822 8.54754,8.08185 8.52659,8.06657 8.50516,8.05238 8.48328,8.03928 8.461,8.02725 8.43834,8.0163 8.41535,8.00643 8.39206,7.99762 8.36849,7.98989 8.3447,7.98322 8.32072,7.97761 8.29658,7.97306 8.27232,7.96956 8.24798,7.96712 8.22358,7.96573 8.19917,7.96538 8.17479,7.96608 8.15046,7.96781 8.12624,7.97059 8.10214,7.97439 8.0782,7.97923 8.05448,7.98509 8.03098,7.99198 8.00777,7.99989 7.98487,8.00881 7.96231,8.01875 7.94014,8.0297 7.91839,8.04166 7.89709,8.05462 7.87628,8.06858 7.856,8.08355 7.83629,8.0995 4.05002,4.31323 4.06974,4.29728 4.09002,4.28231 4.11082,4.26835 4.13212,4.25539 4.15387,4.24343 4.17604,4.23248 4.1986,4.22254 4.2215,4.21361 4.24472,4.20571 4.26821,4.19882 4.29194,4.19296 4.31587,4.18812 4.33997,4.18431 4.3642,4.18154 4.38852,4.17981 4.41291,4.17911 4.43731,4.17946 4.46171,4.18085 4.48606,4.18329 4.51031,4.18679 4.53445,4.19133 4.55844,4.19694 4.58222,4.20361 4.60579,4.21135 4.62908,4.22015 4.65207,4.23003 4.67473,4.24098 4.69702,4.253 4.71889,4.26611 4.74032,4.2803 4.76127,4.29558 "/>
     <polygon id="_454605472" class="fil1" points="4.9758,4.87104 8.76206,8.65731 8.75756,8.65571 4.9713,4.86944 "/>
     <polygon id="_454605928" class="fil1" points="5.14956,4.50255 8.93583,8.28882 8.93152,8.30061 8.92715,8.31239 8.9227,8.32415 8.91818,8.33591 8.91359,8.34764 8.90893,8.35935 8.90419,8.37106 8.89938,8.38274 8.8945,8.3944 8.88954,8.40605 8.88451,8.41769 8.87941,8.4293 8.87424,8.44089 8.86899,8.45247 8.86367,8.46403 8.85828,8.47557 8.85281,8.48709 8.84728,8.49858 8.84167,8.51006 8.83598,8.52152 8.83022,8.53296 8.82439,8.54437 8.81849,8.55577 8.81251,8.56715 8.80646,8.5785 8.80034,8.58983 8.79415,8.60113 8.78787,8.61241 8.78153,8.62367 8.77511,8.63491 8.76863,8.64612 8.76206,8.65731 4.9758,4.87104 4.98236,4.85985 4.98885,4.84864 4.99526,4.8374 5.00161,4.82614 5.00788,4.81486 5.01407,4.80356 5.0202,4.79222 5.02624,4.78087 5.03222,4.7695 5.03813,4.7581 5.04396,4.74669 5.04971,4.73525 5.0554,4.72379 5.06101,4.71231 5.06655,4.70081 5.07201,4.6893 5.0774,4.67776 5.08272,4.6662 5.08797,4.65462 5.09314,4.64303 5.09824,4.63141 5.10327,4.61978 5.10823,4.60813 5.11311,4.59646 5.11792,4.58478 5.12266,4.57308 5.12732,4.56137 5.13191,4.54963 5.13643,4.53788 5.14088,4.52612 5.14526,4.51434 "/>
     <polygon id="_454605520" class="fil1" points="4.66293,1.89593 8.4492,5.6822 8.33572,5.91209 4.54946,2.12581 "/>
    </g>
    <path id="_457170344" class="fil1" d="M4.58839 2.16119c0.240409,0.223713 0.419449,0.491173 0.535024,0.780106 0.133717,0.334256 0.182614,0.697012 0.14352,1.05386l-0.000350394 0.00312205 -0.0145118 0.107201 -0.000397638 0.00251181c-0.021752,0.13411 -0.0557323,0.266276 -0.102118,0.394563 -0.0455079,0.125878 -0.103366,0.249283 -0.173764,0.368492l-0.0045 -0.00159843c0.0439449,-0.199898 -0.0219488,-0.416811 -0.189598,-0.557488 -0.215039,-0.180437 -0.524508,-0.174232 -0.731677,0.00127953l-0.0011063 -0.000909449 -0.00438976 -0.00362205c0.126508,-0.232453 0.0764646,-0.529362 -0.134094,-0.706043 -0.122201,-0.102539 -0.274902,-0.144815 -0.421996,-0.130008 -0.0357953,0.0036063 -0.0712559,0.0105906 -0.105866,0.0209134l-1.15468 1.3761c0.00404331,0.024752 -0.00362205,0.0547874 -0.0291339,0.0852008l-0.183563 0.218831c-0.0342205,0.0407953 -0.0906693,0.0603189 -0.14122,0.0706417 -0.0530472,0.0108346 -0.10798,0.00593307 -0.158083,-0.0147205 -0.0498189,-0.0205394 -0.0924055,-0.0553071 -0.122496,-0.100008 -0.0302598,-0.0449606 -0.0464528,-0.0977598 -0.0467244,-0.151945 -0.00026378,-0.0540945 0.0154331,-0.106937 0.0451811,-0.152106 0.0188268,-0.0285787 0.0430276,-0.053248 0.0708307,-0.0731457 0.0396969,-0.0284173 0.109217,-0.0180945 0.133992,0.0250748 0.00372441,0.00649213 0.00611417,0.0134921 0.00700394,0.0209291 0.00198819,0.0165945 0.00178346,0.0315354 -0.0106535,0.043748 -0.00896457,0.00880709 -0.0217598,0.0163504 -0.0320512,0.0237244 -0.0177362,0.0127126 -0.0325669,0.0264528 -0.0435276,0.045622 -0.0115591,0.0202205 -0.0189685,0.0420827 -0.0188543,0.0655827 0.00011811,0.0238937 0.00735827,0.0471693 0.020689,0.0669764 0.0134882,0.0200394 0.0326024,0.0356772 0.0549409,0.0448858 0.0219961,0.00906299 0.0461654,0.0112165 0.0694488,0.00646457 0.0225787,-0.00461024 0.0445039,-0.0147913 0.0595551,-0.0327283l0.176543 -0.210398c0.0273071,-0.0325433 0.0584291,-0.0442677 0.0851496,-0.0417323l0.0774213 -0.0922677 -0.0170748 -0.0143268 0.0344134 -0.0410118 -0.0159764 -0.0134055 0.0473504 -0.0564291 0.0159764 0.0134055 0.0344134 -0.0410118 0.0170748 0.0143268 0.947579 -1.12928c0.00603543,-0.040189 0.00772835,-0.0808228 0.0051378,-0.121161 -0.00958268,-0.149465 -0.0779094,-0.294898 -0.201701,-0.398772 -0.210551,-0.176677 -0.511634,-0.174406 -0.718587,-0.00947244l-0.000740157 -0.000629921 -0.0046811 -0.00399606c0.136854,-0.2345 0.0892205,-0.540331 -0.125807,-0.720764 -0.167287,-0.14037 -0.391728,-0.16778 -0.580701,-0.0904173l-0.00129528 -0.00229528c0.10478,-0.0896693 0.216193,-0.16798 0.332484,-0.234791 0.118276,-0.0679528 0.242512,-0.124358 0.370791,-0.169059l0.00240945 -0.000826772 0.103043 -0.0329134 0.00301969 -0.00088189c0.344634,-0.100472 0.710374,-0.115303 1.06278,-0.0416654 0.305039,0.063748 0.599913,0.19389 0.862252,0.392264 0.0139528,0.0105551 0.027815,0.0212992 0.0415827,0.0322362l0.206858 -0.151484 -0.113476 0.22989c0.0131535,0.0116654 0.0261339,0.0234567 0.038937,0.0353701z"/>
   </g>
  </g>
  <path class="fil2" d="M3.41333 -3.93701e-006c1.88513,0 3.41333,1.5282 3.41333,3.41333 0,1.88513 -1.5282,3.41333 -3.41333,3.41333 -1.88513,0 -3.41333,-1.5282 -3.41333,-3.41333 0,-1.88513 1.5282,-3.41333 3.41333,-3.41333z"/>
  <rect class="fil3" transform="matrix(0.817939 0.686332 -0.27973 0.33337 2.29105 4.59312)" width="0.0520827" height="0.169272"/>
  <polygon class="fil4" points="2.10694,4.87965 2.173,4.93507 4.54209,2.11169 4.47604,2.05627 2.35851,4.57984 2.34144,4.56551 2.22526,4.70396 2.24233,4.7183 "/>
  <polygon class="fil5" points="4.43514,2.06274 4.66293,1.89593 4.53799,2.14904 "/>
  <path class="fil6" d="M1.71744 4.91151c0.0109606,-0.0191693 0.0257913,-0.0329094 0.0435315,-0.045622 0.0102874,-0.00737402 0.0230827,-0.0149173 0.0320472,-0.0237244 0.012437,-0.0122126 0.0126417,-0.0271535 0.0106535,-0.043748 -0.000889764,-0.00743701 -0.00327953,-0.0144409 -0.00700394,-0.0209291 -0.0247756,-0.0431732 -0.0942953,-0.0534961 -0.133992,-0.0250748 -0.0278071,0.0198976 -0.0520079,0.0445669 -0.0708307,0.0731417 -0.029752,0.0451732 -0.0454449,0.0980157 -0.0451811,0.15211 0.000271654,0.054185 0.0164646,0.106988 0.0467244,0.151945 0.0300945,0.0447008 0.0726772,0.0794685 0.122496,0.100008 0.0501024,0.0206535 0.105035,0.0255551 0.158083,0.0147205 0.0505472,-0.0103228 0.107,-0.0298425 0.14122,-0.0706378l0.183567 -0.218835c0.0872441,-0.104008 -0.0342283,-0.203587 -0.118992,-0.102571l-0.176543 0.210398c-0.0150512,0.017937 -0.0369724,0.0281181 -0.0595551,0.0327283 -0.0232835,0.00475197 -0.0474528,0.00259843 -0.0694488,-0.00646457 -0.0223386,-0.00920866 -0.0414528,-0.0248465 -0.0549409,-0.0448819 -0.0133346,-0.019811 -0.0205709,-0.0430866 -0.020689,-0.0669803 -0.00011811,-0.0235039 0.00729528,-0.0453622 0.0188543,-0.0655827z"/>
  <path class="fil7" d="M2.3902 2.92052c0.638567,-0.627988 1.30029,-0.914409 1.98518,-0.859272 0.0375118,0.00301969 0.0750984,0.00706299 0.112756,0.0121339 -0.0242441,-0.0200197 -0.0488031,-0.0394173 -0.0736496,-0.0582087 -0.262331,-0.198374 -0.557209,-0.328516 -0.862248,-0.39226 -0.352406,-0.0736417 -0.718142,-0.0588071 -1.06278,0.0416614l-0.00301969 0.00088189 -0.103047 0.0329094 -0.00240551 0.000830709c-0.12828,0.0447008 -0.252516,0.101106 -0.370791,0.169055 -0.116287,0.066815 -0.227705,0.145126 -0.33248,0.234795l0.00129134 0.00229134c0.188972,-0.0773583 0.413413,-0.0499488 0.580697,0.0904213 0.215031,0.180433 0.262669,0.486264 0.125811,0.720764l0.0046811 0.00399606z"/>
  <path class="fil8" d="M3.29081 3.52988l1.21195 -1.44432c-0.00485827,-0.00408268 -0.00974016,-0.00814173 -0.014622,-0.0121772 -0.0376575,-0.00507087 -0.0752441,-0.00911417 -0.112756,-0.0121339 -0.68489,-0.0551378 -1.34661,0.23128 -1.98518,0.859272l0.000740157 0.000629921c0.206953,-0.164933 0.508031,-0.167205 0.718587,0.00947244 0.123791,0.10387 0.192118,0.249307 0.201705,0.398772 0.00433858,0.0676654 -0.0033622,0.136157 -0.0234016,0.201988 0.000992126,-0.0005 0.00198425,-0.001 0.00297638,-0.0015z"/>
  <path class="fil7" d="M4.04891 4.31232c0.507854,-0.738343 0.674909,-1.44015 0.501181,-2.10539 -0.00940945,-0.0360197 -0.019811,-0.0719291 -0.0312165,-0.107732 -0.00534252,-0.00456693 -0.0107165,-0.00911417 -0.0161299,-0.0136535l-1.21194 1.44433c0.0622598,-0.0311693 0.129339,-0.0503543 0.19763,-0.0572283 0.147091,-0.014811 0.299791,0.0274646 0.421988,0.13 0.210563,0.176681 0.260602,0.473598 0.134102,0.706047l0.00438583 0.00362205z"/>
  <path class="fil8" d="M4.78169 4.31195c0.167654,0.140677 0.233547,0.357591 0.189602,0.557488l0.0045 0.00159449c0.0703976,-0.119205 0.128256,-0.242614 0.173764,-0.368488 0.0463858,-0.128287 0.0803661,-0.260453 0.102118,-0.394563l0.000397638 -0.00251181 0.0145118 -0.107201 0.000350394 -0.00312598c0.0390984,-0.356843 -0.00980315,-0.719598 -0.14352,-1.05385 -0.115575,-0.288933 -0.29461,-0.556394 -0.535024,-0.780106 -0.022626,-0.0210551 -0.0457992,-0.0417244 -0.0695157,-0.0619843 0.0114055,0.0358031 0.0218071,0.0717126 0.0312165,0.107732 0.173728,0.665244 0.00667323,1.36705 -0.501181,2.10539l0.0011063 0.000909449c0.207169,-0.175512 0.516638,-0.181717 0.731673,-0.00127953z"/>
 </g>
</svg>
